<?xml version="1.0" encoding="UTF-8" standalone="no"?>
<!-- Generator: Adobe Illustrator 16.0.0, SVG Export Plug-In . SVG Version: 6.00 Build 0)  -->

<svg
   xmlns:dc="http://purl.org/dc/elements/1.1/"
   xmlns:cc="http://creativecommons.org/ns#"
   xmlns:rdf="http://www.w3.org/1999/02/22-rdf-syntax-ns#"
   xmlns:svg="http://www.w3.org/2000/svg"
   xmlns="http://www.w3.org/2000/svg"
   xmlns:sodipodi="http://sodipodi.sourceforge.net/DTD/sodipodi-0.dtd"
   xmlns:inkscape="http://www.inkscape.org/namespaces/inkscape"
   version="1.1"
   id="Layer_1"
   x="0px"
   y="0px"
   width="408.14099"
   height="418.95599"
   viewBox="0 0 408.14097 418.95599"
   enable-background="new 0 0 582.353 480"
   xml:space="preserve"
   sodipodi:docname="caixa_1.svg"
   inkscape:version="0.92.3 (2405546, 2018-03-11)"><metadata
   id="metadata16"><rdf:RDF><cc:Work
       rdf:about=""><dc:format>image/svg+xml</dc:format><dc:type
         rdf:resource="http://purl.org/dc/dcmitype/StillImage" /><dc:title></dc:title></cc:Work></rdf:RDF></metadata><defs
   id="defs14" /><sodipodi:namedview
   pagecolor="#ffffff"
   bordercolor="#666666"
   borderopacity="1"
   objecttolerance="10"
   gridtolerance="10"
   guidetolerance="10"
   inkscape:pageopacity="0"
   inkscape:pageshadow="2"
   inkscape:window-width="1920"
   inkscape:window-height="1017"
   id="namedview12"
   showgrid="false"
   fit-margin-top="0"
   fit-margin-left="0"
   fit-margin-right="0"
   fit-margin-bottom="0"
   inkscape:zoom="0.49166667"
   inkscape:cx="176.47251"
   inkscape:cy="209.659"
   inkscape:window-x="-8"
   inkscape:window-y="-8"
   inkscape:window-maximized="1"
   inkscape:current-layer="Layer_1" />
<path
   d="m 408.141,406.843 c 0,6.691 -5.896,12.113 -13.169,12.113 H 13.168 C 5.895,418.956 0,413.534 0,406.843 V 55.655 C 0,48.965 5.896,43.542 13.168,43.542 h 381.804 c 7.273,0 13.169,5.423 13.169,12.113 z"
   id="path2"
   inkscape:connector-curvature="0"
   style="opacity:0.3;fill:#66cdf5" />
<radialGradient
   id="SVGID_1_"
   cx="308.9722"
   cy="123.2549"
   r="98.001602"
   gradientUnits="userSpaceOnUse"
   gradientTransform="translate(-114.704,-30.703)">
	<stop
   offset="0.3064"
   style="stop-color:#06BEE7"
   id="stop4" />
	<stop
   offset="1"
   style="stop-color:#0380A8"
   id="stop6" />
</radialGradient>
<path
   d="M 289.227,64.713 V 14.561 C 289.227,6.532 282.695,0 274.665,0 H 105.667 C 97.638,0 91.106,6.532 91.106,14.561 v 102.167 c 0,8.028 6.532,14.561 14.561,14.561 h 47.896 l -5.483,5.901 h -8.214 c -1.867,0 -3.381,1.514 -3.381,3.38 0,1.868 1.514,3.381 3.381,3.381 h 47.047 v 32.609 c 0,4.71 3.833,8.544 8.543,8.544 h 36.347 c 4.711,0 8.543,-3.833 8.543,-8.544 v -6.868 h 45.506 c 6.385,0 11.58,-5.197 11.58,-11.585 V 75.794 c -0.001,-5.212 -3.46,-9.631 -8.205,-11.081 z m 1.443,11.081 v 0.924 h -77.76 v -0.924 c 0,-2.66 2.164,-4.823 4.823,-4.823 h 68.118 c 2.656,0 4.819,2.164 4.819,4.823 z m -58.868,28.565 H 212.909 V 83.48 h 77.76 v 66.941 h -50.324 v -37.519 c 0,-4.71 -3.832,-8.543 -8.543,-8.543 z m 1.782,12.987 h -39.909 v -4.443 c 0,-0.982 0.798,-1.782 1.781,-1.782 h 36.348 c 0.981,0 1.781,0.799 1.781,1.782 z m 48.88,-99.404 v 46.267 h -64.731 c -6.389,0 -11.586,5.197 -11.586,11.585 v 28.565 h -10.692 c -4.707,0 -8.537,3.826 -8.542,8.532 H 97.868 V 17.942 Z m -88.791,106.167 h 39.909 v 41.247 H 193.673 Z M 105.667,6.762 h 168.999 c 3.088,0 5.754,1.809 7.016,4.418 H 98.649 c 1.263,-2.61 3.929,-4.418 7.018,-4.418 z m -7.225,112.892 h 88.47 v 4.873 h -81.245 c -3.266,-0.001 -6.065,-2.02 -7.225,-4.873 z m 58.868,17.536 5.483,-5.901 h 24.119 v 5.901 z m 74.492,41.152 h -36.347 c -0.982,0 -1.782,-0.799 -1.782,-1.781 v -4.444 h 39.909 v 4.444 c 0.002,0.983 -0.798,1.781 -1.78,1.781 z m 54.048,-15.41 h -45.505 v -5.749 h 50.324 v 0.925 c 0.001,2.659 -2.162,4.824 -4.819,4.824 z"
   id="path9"
   inkscape:connector-curvature="0"
   style="fill:url(#SVGID_1_)" />
</svg>